# xmcd CD database file
#
# Track frame offsets:
#	150
#	14590
#	28975
#	43395
#	57295
#	71398
#	85295
#	100115
#	116545
#	132718
#	147553
#	162545
#	178408
#	192263
#	205813
#	220225
#	234033
#	247358
#	263680
#	278713
#	294533
#
# Disc length: 4127 seconds
#
# Revision: 0
# Processed by: cddbd v1.5.1PL0 Copyright (c) Steve Scherf et al.
# Submitted via: CDex 1.50
#
DISCID=51101d15
DTITLE=Armstrong - Big Band Recordings 2
DYEAR=1930
DGENRE=Jazz
TTITLE0=Blue Again 
TTITLE1=Little Joe
TTITLE2=You Rascal You
TTITLE3=Them There Eyes
TTITLE4=When Your Lover Has Gone
TTITLE5=Lazy River 
TTITLE6=Chinatown, My Chinatown 
TTITLE7=Wrap Your Troubles in Dreams
TTITLE8=Stardust 
TTITLE9=You Can Depend on Me
TTITLE10=Georgia on My Mind
TTITLE11=Lonesome Road 
TTITLE12=I Got Rhythm 
TTITLE13=Between the Devil and the Deep Blue Sea 
TTITLE14=Kickin' the Gong Around 
TTITLE15=Home (When Shadows Fall) 
TTITLE16=All of Me
TTITLE17=Love, You Funny Thing 
TTITLE18=New Tiger Rag
TTITLE19=Keepin' Out of Mischief Now
TTITLE20=Lawd, You Made the Night Too Long 
EXTD=YEAR: 1930
EXTT0=
EXTT1=
EXTT2=
EXTT3=
EXTT4=
EXTT5=
EXTT6=
EXTT7=
EXTT8=
EXTT9=
EXTT10=
EXTT11=
EXTT12=
EXTT13=
EXTT14=
EXTT15=
EXTT16=
EXTT17=
EXTT18=
EXTT19=
EXTT20=
PLAYORDER=
